<svg width="32" height="32" viewBox="0 0 32 32" fill="none" xmlns="http://www.w3.org/2000/svg">
<g clip-path="url(#clip0_2_48)">
<path d="M3.52004 25.537L3.60213 25.2923L3.4502 25.0837C1.59251 22.5325 0.5 19.391 0.5 16C0.5 7.45202 7.45026 0.5 15.996 0.5H16.004C24.5497 0.5 31.5 7.45398 31.5 16C31.5 24.546 24.5497 31.5 16.004 31.5C12.851 31.5 9.92861 30.5625 7.47813 28.9392L7.27819 28.8067L7.04975 28.8797L1.83998 30.5452L3.52004 25.537Z" stroke="white"/>
<path d="M25.314 22.5941C24.928 23.6841 23.396 24.5881 22.174 24.8521C21.338 25.0301 20.246 25.1721 16.57 23.6481C11.868 21.7001 8.84001 16.9221 8.60401 16.6121C8.37801 16.3021 6.70401 14.0821 6.70401 11.7861C6.70401 9.49012 7.87001 8.37212 8.34001 7.89212C8.72601 7.49812 9.36401 7.31812 9.97601 7.31812C10.174 7.31812 10.352 7.32812 10.512 7.33612C10.982 7.35612 11.218 7.38412 11.528 8.12612C11.914 9.05612 12.854 11.3521 12.966 11.5881C13.08 11.8241 13.194 12.1441 13.034 12.4541C12.884 12.7741 12.752 12.9161 12.516 13.1881C12.28 13.4601 12.056 13.6681 11.82 13.9601C11.604 14.2141 11.36 14.4861 11.632 14.9561C11.904 15.4161 12.844 16.9501 14.228 18.1821C16.014 19.7721 17.462 20.2801 17.98 20.4961C18.366 20.6561 18.826 20.6181 19.108 20.3181C19.466 19.9321 19.908 19.2921 20.358 18.6621C20.678 18.2101 21.082 18.1541 21.506 18.3141C21.938 18.4641 24.224 19.5941 24.694 19.8281C25.164 20.0641 25.474 20.1761 25.588 20.3741C25.7 20.5721 25.7 21.5021 25.314 22.5941Z" fill="#FAFAFA"/>
</g>
<defs>
<clipPath id="clip0_2_48">
<rect width="32" height="32" fill="white"/>
</clipPath>
</defs>
</svg>
