<?xml version="1.0" encoding="utf-8"?><svg xmlns="http://www.w3.org/2000/svg" xmlns:xlink="http://www.w3.org/1999/xlink"><symbol fill="none" viewBox="0 0 10 16" id="angle-next" xmlns="http://www.w3.org/2000/svg">
    <path d="M2 1.5L8.5 8 2 14.5" stroke-width="3" stroke-linecap="round" stroke-linejoin="round"/>
</symbol><symbol fill="none" viewBox="0 0 10 16" id="angle-prev" xmlns="http://www.w3.org/2000/svg">
    <path d="M8.5 1.5L2 8l6.5 6.5" stroke-width="3" stroke-linecap="round" stroke-linejoin="round"/>
</symbol><symbol viewBox="0 0 30 30" id="calc" xmlns="http://www.w3.org/2000/svg">
    <path d="M5.508 8.438H6.68v1.171a.879.879 0 101.758 0V8.438h1.171a.879.879 0 000-1.758H8.438V5.508a.879.879 0 00-1.758 0V6.68H5.508a.879.879 0 000 1.758zM19.16 8.438h3.516a.879.879 0 000-1.758H19.16a.879.879 0 100 1.758zM22.969 21.504h-4.102a.879.879 0 000 1.758h4.102a.879.879 0 000-1.758zM22.969 18.574h-4.102a.879.879 0 000 1.758h4.102a.879.879 0 000-1.758zM9.645 18.832a.879.879 0 00-1.243 0l-.843.843-.844-.843a.879.879 0 10-1.243 1.243l.844.843-.844.843a.879.879 0 101.243 1.243l.844-.843.843.843a.876.876 0 001.243 0 .879.879 0 000-1.243l-.843-.843.843-.843a.879.879 0 000-1.243z"/>
    <path d="M28.477 15.889V2.637A2.64 2.64 0 0025.84 0H2.637A2.64 2.64 0 000 2.637V25.84a2.64 2.64 0 002.637 2.637h13.252A9.03 9.03 0 0020.918 30C25.926 30 30 25.926 30 20.918a9.03 9.03 0 00-1.523-5.03zM26.719 2.637v11.298a9.04 9.04 0 00-5.801-2.1 9.04 9.04 0 00-5.8 2.1V1.758H25.84a.88.88 0 01.879.879zm-24.082-.88h10.722V13.36H1.758V2.637a.88.88 0 01.879-.88zm-.88 24.083V15.117H13.36v.772a9.029 9.029 0 00-1.523 5.029 9.04 9.04 0 002.1 5.8h-11.3a.88.88 0 01-.878-.878zm19.161 2.402c-4.039 0-7.324-3.286-7.324-7.324 0-4.039 3.285-7.324 7.324-7.324 4.038 0 7.324 3.285 7.324 7.324 0 4.038-3.286 7.324-7.324 7.324z"/>
</symbol><symbol viewBox="0 0 47 47" id="check-xl" xmlns="http://www.w3.org/2000/svg">
    <path d="M23.5 0C10.542 0 0 10.542 0 23.5S10.542 47 23.5 47 47 36.458 47 23.5 36.458 0 23.5 0zm0 42.727c-10.602 0-19.227-8.625-19.227-19.227S12.898 4.273 23.5 4.273 42.727 12.898 42.727 23.5 34.102 42.727 23.5 42.727z"/>
    <path d="M32.312 15.191L20.227 27.277l-5.539-5.54a2.137 2.137 0 00-3.021 3.022l7.05 7.05a2.137 2.137 0 003.021 0l13.595-13.596a2.136 2.136 0 00-3.02-3.022z"/>
</symbol><symbol viewBox="0 0 21 21" id="clock" xmlns="http://www.w3.org/2000/svg">
    <path d="M20.385 9.885a.615.615 0 00-.615.615c0 5.111-4.159 9.27-9.27 9.27-5.11 0-9.27-4.159-9.27-9.27s4.16-9.27 9.27-9.27c1.559 0 3.075.387 4.428 1.125l-.769.769a.615.615 0 00.435 1.05h2.944c.34 0 .615-.275.615-.615V.615a.615.615 0 00-1.05-.435L15.83 1.452A10.459 10.459 0 0010.5 0a10.431 10.431 0 00-7.425 3.075A10.431 10.431 0 000 10.5c0 2.805 1.093 5.441 3.076 7.425A10.431 10.431 0 0010.5 21c2.805 0 5.442-1.092 7.425-3.075A10.431 10.431 0 0021 10.5a.615.615 0 00-.615-.615z"/>
    <path d="M14.454 9.885h-3.339V6.546a.615.615 0 00-1.23 0V10.5c0 .34.275.615.615.615h3.954a.615.615 0 000-1.23z"/>
</symbol><symbol viewBox="0 0 36 36" id="email" xmlns="http://www.w3.org/2000/svg">
    <path d="M18.405 20.768a.786.786 0 01-.413.116.785.785 0 01-.414-.116L11 16.752v5.339c0 1.14.926 2.066 2.066 2.066h9.868c1.14 0 2.066-.926 2.066-2.066v-5.339l-6.595 4.017z"/>
    <path d="M22.934 13.843h-9.868c-.975 0-1.802.694-2 1.62l6.942 4.231 6.926-4.231a2.054 2.054 0 00-2-1.62z"/>
</symbol><symbol viewBox="0 0 26 26" id="filter" xmlns="http://www.w3.org/2000/svg">
    <path d="M20.592 13a.61.61 0 01-.61.61h-3.698v.98a.61.61 0 01-1.219 0v-.98H6.018a.61.61 0 010-1.22h9.047v-.98a.61.61 0 011.22 0v.98h3.697a.61.61 0 01.61.61zm-.61-5.902H10.02v-1.08a.61.61 0 10-1.22 0v1.08H6.019a.61.61 0 000 1.22H8.8v.88a.61.61 0 101.219 0v-.881h9.963a.61.61 0 100-1.219zm0 10.685h-9.215v-.98a.61.61 0 10-1.219 0v.98h-3.53a.61.61 0 100 1.219h3.53v.98a.61.61 0 001.219 0v-.98h9.215a.61.61 0 100-1.219zM26 13c0 7.168-5.832 13-13 13S0 20.168 0 13 5.832 0 13 0s13 5.832 13 13zm-1.219 0c0-6.496-5.285-11.781-11.781-11.781S1.219 6.504 1.219 13 6.504 24.781 13 24.781 24.781 19.496 24.781 13z"/>
</symbol><symbol viewBox="0 0 64 15" id="long-arrow-right" xmlns="http://www.w3.org/2000/svg">
    <path d="M63.707 8.207a1 1 0 000-1.414L57.343.429a1 1 0 10-1.414 1.414L61.586 7.5l-5.657 5.657a1 1 0 001.414 1.414l6.364-6.364zM0 8.5h63v-2H0v2z"/>
</symbol><symbol viewBox="0 0 41 41" id="nav-arrow-next" xmlns="http://www.w3.org/2000/svg">
    <path d="M29.354 21.354a.5.5 0 000-.708l-3.182-3.181a.5.5 0 10-.707.707L28.293 21l-2.828 2.828a.5.5 0 10.707.707l3.182-3.181zM13 21.5h16v-1H13v1z"/>
</symbol><symbol viewBox="0 0 41 41" id="nav-arrow-prev" xmlns="http://www.w3.org/2000/svg">
    <path d="M11.646 21.354a.5.5 0 010-.708l3.182-3.181a.5.5 0 11.708.707L12.707 21l2.829 2.828a.5.5 0 11-.708.707l-3.182-3.181zM28 21.5H12v-1h16v1z"/>
</symbol><symbol viewBox="0 0 17 8" id="page-nav-next" xmlns="http://www.w3.org/2000/svg">
    <path d="M16.354 4.354a.5.5 0 000-.708L13.172.464a.5.5 0 10-.708.708L15.293 4l-2.829 2.828a.5.5 0 10.708.708l3.182-3.182zM0 4.5h16v-1H0v1z"/>
</symbol><symbol viewBox="0 0 17 8" id="page-nav-prev" xmlns="http://www.w3.org/2000/svg">
    <path d="M.646 4.354a.5.5 0 010-.708L3.828.464a.5.5 0 11.708.708L1.707 4l2.829 2.828a.5.5 0 11-.708.708L.646 4.354zM17 4.5H1v-1h16v1z"/>
</symbol><symbol viewBox="0 0 26 29" id="paperclip" xmlns="http://www.w3.org/2000/svg">
    <path d="M1.824 17.873l2.133-2.144 9.599-9.651a4.508 4.508 0 016.387.012 4.567 4.567 0 01.012 6.422l-9.598 9.654a1.002 1.002 0 01-1.423 0 1.015 1.015 0 010-1.43l9.599-9.654a2.537 2.537 0 000-3.574 2.504 2.504 0 00-3.555 0l-9.601 9.65-2.134 2.145a4.568 4.568 0 00.002 6.436 4.509 4.509 0 006.4-.001l1.778-1.788 9.954-10.008.711-.715a6.598 6.598 0 00-.07-9.223 6.512 6.512 0 00-9.173-.071L2.18 14.657a1.002 1.002 0 01-1.683-.454 1.015 1.015 0 01.26-.976L11.423 2.503a8.514 8.514 0 0112.074.014c3.332 3.35 3.338 8.781.013 12.14L12.845 25.38l-1.78 1.788a6.512 6.512 0 01-9.151-.094 6.598 6.598 0 01-.09-9.2z"/>
</symbol><symbol viewBox="0 0 36 36" id="phone" xmlns="http://www.w3.org/2000/svg">
    <path d="M24.709 21.274L22.7 19.266c-.4-.398-1.062-.386-1.476.028l-1.012 1.01-.2-.11c-.638-.354-1.512-.84-2.432-1.76-.923-.922-1.408-1.798-1.763-2.437-.038-.068-.073-.133-.109-.195l.679-.678.334-.334c.414-.414.426-1.076.027-1.476l-2.008-2.008c-.399-.399-1.061-.387-1.476.028l-.566.569.016.015c-.19.242-.349.522-.467.823-.108.286-.176.56-.207.834-.265 2.198.74 4.206 3.465 6.932 3.767 3.767 6.803 3.482 6.934 3.468a3.394 3.394 0 001.656-.674l.013.01.573-.56c.413-.415.425-1.077.027-1.477z"/>
</symbol><symbol fill="none" viewBox="0 0 30 30" id="phone-call" xmlns="http://www.w3.org/2000/svg">
    <path d="M25.605 4.392c-5.859-5.857-15.356-5.856-21.213.003-5.857 5.859-5.856 15.356.003 21.213 5.859 5.857 15.356 5.856 21.213-.003a15 15 0 00-.003-21.213zm-2.888 16.503l-.002.002v-.005l-.76.755a4 4 0 01-3.775 1.08 13.29 13.29 0 01-3.86-1.73 17.83 17.83 0 01-3.045-2.455A17.964 17.964 0 019 15.782a13.997 13.997 0 01-1.71-3.46 4 4 0 011-4.085l.89-.89a.635.635 0 01.898-.002l.002.002 2.81 2.81c.248.247.25.65.002.898l-.002.002-1.65 1.65a1.345 1.345 0 00-.14 1.75c.597.819 1.257 1.59 1.975 2.305.8.804 1.67 1.535 2.6 2.185a1.355 1.355 0 001.73-.15L19 17.177a.635.635 0 01.898-.002l.002.002 2.815 2.82c.248.247.25.65.002.898z" fill="#BDBDBD"/>
</symbol><symbol viewBox="0 0 17 17" id="photo" xmlns="http://www.w3.org/2000/svg">
    <path d="M10.002 7.529a2.125 2.125 0 11-3.005 3.005 2.125 2.125 0 013.005-3.005z"/>
    <path d="M14.875 3.187h-1.468l-1.063-2.125H4.655L3.593 3.188l-1.466.003A2.129 2.129 0 00.006 5.315L0 13.812c0 1.172.953 2.126 2.125 2.126h12.75A2.127 2.127 0 0017 13.813v-8.5a2.127 2.127 0 00-2.125-2.126zM8.5 13.281a4.255 4.255 0 01-4.25-4.25 4.255 4.255 0 014.25-4.25 4.255 4.255 0 014.25 4.25 4.255 4.255 0 01-4.25 4.25z"/>
</symbol><symbol fill="none" viewBox="0 0 46 46" id="plan" xmlns="http://www.w3.org/2000/svg">
    <path d="M39.867 11.5H41.4v10.733h-1.533V11.5zM.105 37.554c.034.148.08.293.135.433.022.054.056.1.081.154a2.811 2.811 0 001.385 1.394c.059.029.113.067.174.093.137.053.277.096.42.129.054.014.103.037.157.047.2.041.405.062.61.063h20.7v-1.534h-20.7c-.103 0-.206-.01-.307-.03-.037-.008-.071-.024-.107-.033a1.566 1.566 0 01-.179-.056 1.75 1.75 0 01-.153-.083c-.035-.02-.072-.035-.104-.057a1.609 1.609 0 01-.42-.42c-.03-.045-.051-.094-.077-.14-.026-.047-.047-.077-.065-.12a1.362 1.362 0 01-.061-.199c-.009-.03-.022-.058-.028-.09a1.534 1.534 0 011.5-1.838h2.3a.767.767 0 00.767-.767V7.667h26.834V6.133H6.133V2.3a.766.766 0 00-.766-.767h-2.3A3.067 3.067 0 000 4.6v32.2c0 .206.021.411.062.613.01.048.03.093.043.141zM1.533 4.6c0-.847.687-1.533 1.534-1.533H4.6v30.666H3.067a3.043 3.043 0 00-1.534.412V4.6z" fill="#000"/>
    <path d="M20.864 17.378l-1.635-2.045h6.838V13.8h-8.434a.766.766 0 00-.586.278c0 .005-.01.005-.012.01l-6.133 7.666a.793.793 0 00-.1.169c0 .005-.006.009-.009.014a.77.77 0 00-.054.265c0 .011-.006.02-.006.031v9.2c0 .424.344.767.767.767h19.933v-1.533h-6.9V23h10.734v4.6H36.8v-5.367c0-.01-.006-.02-.006-.031a.76.76 0 00-.054-.264c0-.007-.007-.012-.01-.018a.73.73 0 00-.098-.165l-2.3-2.878-1.197.956 1.303 1.634H24.135l-3.271-4.089zm-3.23-1.585l3.024 3.782 1.513 1.892h-9.075l4.537-5.674zM12.266 23H23v7.667h-2.3V25.3a.766.766 0 00-.767-.767h-4.6a.766.766 0 00-.766.767v5.367h-2.3V23zm3.833 7.667v-4.6h3.067v4.6H16.1z" fill="#000"/>
    <path d="M28.367 24.533a.766.766 0 00-.767.767v3.067c0 .423.343.766.767.766h3.066a.767.767 0 00.767-.766V25.3a.766.766 0 00-.767-.767h-3.066zm2.3 3.067h-1.534v-1.533h1.534V27.6zM45.527 20.758a.767.767 0 00-.836.167L20.925 44.69A.766.766 0 0021.467 46h23.766a.767.767 0 00.767-.767V21.467c0-.31-.187-.59-.473-.709zm-1.06 23.709h-21.15l21.15-21.15v21.15z" fill="#000"/>
    <path d="M32.259 40.927a.767.767 0 00.708.473h7.666a.767.767 0 00.767-.767v-7.666a.766.766 0 00-1.308-.542l-7.667 7.666a.766.766 0 00-.166.836zm7.608-6.11v5.05h-5.05l5.05-5.05zM42.709.225c-.3-.3-.785-.3-1.085 0l-13.8 13.8a.773.773 0 00-.184.3l-.767 2.3a.767.767 0 00.185.783l.224.225-1.758 1.758 1.084 1.084 1.758-1.758.225.225a.767.767 0 00.784.185l2.3-.766a.764.764 0 00.3-.186l13.8-13.8c.3-.3.3-.785 0-1.084L42.71.225zM29.834 14.183l3.133-3.133 1.982 1.983-3.132 3.133-1.983-1.983zm-.493 3.34l-.863-.863.415-1.25 1.697 1.697-1.25.416zm6.692-5.574l-1.982-1.982 8.115-8.117 1.983 1.983-8.116 8.116zM7.667 32.2v2.3c0 .423.343.767.766.767h2.3v-1.534H9.2V32.2H7.667zM10.733 9.2h-2.3a.766.766 0 00-.766.767v2.3H9.2v-1.534h1.533V9.2z" fill="#000"/>
</symbol><symbol fill="none" viewBox="0 0 100 100" id="play" xmlns="http://www.w3.org/2000/svg">
    <path d="M50.001 99.218c27.183 0 49.219-22.036 49.219-49.219S77.184.78 50 .78.782 22.816.782 50s22.036 49.219 49.22 49.219z" fill="#F24646"/>
    <path d="M39.544 72.152l34.768-20.074a2.4 2.4 0 000-4.156L39.544 27.846a2.407 2.407 0 00-3.602 2.078v40.149a2.407 2.407 0 003.602 2.079z" fill="#FFFCEE"/>
</symbol><symbol fill="none" viewBox="0 0 42 42" id="product_icon__01" xmlns="http://www.w3.org/2000/svg">
    <path d="M31.5 0h-21A10.5 10.5 0 000 10.5v21A10.5 10.5 0 0010.5 42h21A10.5 10.5 0 0042 31.5v-21A10.5 10.5 0 0031.5 0zm8.531 31.5a8.54 8.54 0 01-8.531 8.531h-21A8.54 8.54 0 011.969 31.5v-21A8.541 8.541 0 0110.5 1.969h21a8.541 8.541 0 018.531 8.531v21z" fill="#000"/>
    <path d="M29.86 28.467L13.532 12.14h6.458v-1.97h-9.82v9.82h1.97v-6.458l16.327 16.326h-6.46v1.97h9.82v-9.82H29.86v6.458z" fill="#000"/>
</symbol><symbol fill="none" viewBox="0 0 44 44" id="product_icon__02" xmlns="http://www.w3.org/2000/svg">
    <path d="M17.188 17.188V1.374h25.437v26.813h-7.563v14.437h-6.187" stroke="#000" stroke-width="2" stroke-linecap="round" stroke-linejoin="round"/>
    <path d="M26.813 38.5l-4.125 4.125H1.375V8.937h15.813M17.188 23.375v8.938M17.188 38.5v4.125M17.188 28.188H1.374" stroke="#000" stroke-width="2" stroke-linecap="round" stroke-linejoin="round"/>
</symbol><symbol fill="none" viewBox="0 0 46 46" id="product_icon__03" xmlns="http://www.w3.org/2000/svg">
    <path d="M43.125 22.915H2.875A2.878 2.878 0 000 25.79a2.878 2.878 0 002.875 2.875h40.25A2.878 2.878 0 0046 25.79a2.878 2.878 0 00-2.875-2.875zm0 3.833H2.875a.96.96 0 01-.958-.958.96.96 0 01.958-.959h40.25a.96.96 0 01.958.959.96.96 0 01-.958.958z" fill="#000"/>
    <path d="M43.39 26.785a.954.954 0 00-1.185.659l-2.641 9.246a4.814 4.814 0 01-4.608 3.475h-23.91a4.816 4.816 0 01-4.608-3.475l-2.641-9.246a.955.955 0 00-1.185-.66.956.956 0 00-.657 1.185l2.641 9.246a6.735 6.735 0 006.45 4.866h23.908a6.737 6.737 0 006.452-4.866l2.64-9.246a.957.957 0 00-.657-1.184z" fill="#000"/>
    <path d="M11.046 36.333a.966.966 0 01-.922-.695L8.88 31.279a.957.957 0 10-1.842.525l1.244 4.359a2.884 2.884 0 002.764 2.085.957.957 0 100-1.915zM12.886 40.264a.962.962 0 00-1.286.43l-1.917 3.833a.96.96 0 00.859 1.388c.35 0 .688-.194.856-.531l1.917-3.833a.96.96 0 00-.43-1.287zM36.317 44.529L34.4 40.696a.958.958 0 10-1.715.856l1.916 3.834a.958.958 0 001.716-.857zM38.496.085c-.977 0-1.897.382-2.589 1.074L32.865 4.2a.959.959 0 001.355 1.355l3.042-3.04c.328-.33.767-.511 1.244-.511.962 0 1.744.782 1.744 1.744v20.125a.959.959 0 101.919-.002V3.746c0-2.018-1.641-3.66-3.673-3.66z" fill="#000"/>
    <path d="M35.18 5.16l-1.916-1.916a.942.942 0 00-.834-.268l-4.791.785a.954.954 0 00-.756.644.954.954 0 00.223.968l5.75 5.923c.18.19.431.291.686.291a.955.955 0 00.943-.769l.958-4.791a.96.96 0 00-.262-.866zm-2.22 3.493l-3.204-3.299 2.498-.408 1.206 1.206-.5 2.5zM22.718 11.697a.959.959 0 00-1.355 0l-1.917 1.916a.96.96 0 001.355 1.355l1.917-1.916a.96.96 0 000-1.355zM26.552 15.53a.96.96 0 00-1.355 0l-1.917 1.916a.96.96 0 001.355 1.355l1.917-1.916a.96.96 0 000-1.355zM28.468 9.78a.959.959 0 00-1.355 0l-1.917 1.916a.96.96 0 001.355 1.356l1.917-1.917a.96.96 0 000-1.355z" fill="#000"/>
</symbol><symbol fill="none" viewBox="0 0 43 43" id="product_icon__04" xmlns="http://www.w3.org/2000/svg">
    <path d="M42.328 4.042h-8.093a.673.673 0 00-.673.673v8.434h-7.678a.673.673 0 00-.673.673v6.947h-7.845a.673.673 0 00-.673.673v8.037H9.178a.673.673 0 00-.673.673v7.483H.672a.673.673 0 100 1.347h8.506a.673.673 0 00.674-.673v-7.484h7.514a.673.673 0 00.673-.673v-8.037h7.845a.673.673 0 00.673-.673v-6.947h7.678a.673.673 0 00.673-.673V5.388h7.42a.673.673 0 100-1.346zM5.375 16.113a.646.646 0 00.458-.19l9.595-9.595v6.45a.696.696 0 101.393 0V4.714a.696.696 0 00-.696-.697H8.062a.696.696 0 100 1.394h6.45l-9.595 9.594a.648.648 0 00.458 1.107z" fill="#000"/>
</symbol><symbol fill="none" viewBox="0 0 43 43" id="product_icon__05" xmlns="http://www.w3.org/2000/svg">
    <path d="M7.794 24.456c-.269 0-.605-.201-.672-.537l-.873-3.494c-.067-.336.134-.739.47-.806.336-.067.74.134.806.47l.874 3.494c.067.336-.135.739-.47.806 0 .067-.068.067-.135.067z" fill="#000"/>
    <path d="M5.98 24.456H2.956c-1.007 0-1.88-.47-2.486-1.276-.537-.74-.604-1.613-.335-2.486.604-1.546 2.351-2.217 5.307-2.016.874.067 1.68.538 2.016 1.277.403.672.202 1.21.067 1.478-.403.739-1.41 1.075-3.225 1.142a.673.673 0 01-.672-.672c0-.403.269-.672.672-.672 1.747-.067 2.016-.403 2.083-.47 0 0 0-.067-.067-.202a1.072 1.072 0 00-.94-.537c-1.546-.134-3.495 0-3.898 1.142-.201.538 0 1.008.202 1.21.336.403.806.671 1.344.671h3.023c.403 0 .672.336.672.672s-.336.74-.74.74zM35.206 24.456h-.201c-.336-.067-.605-.47-.47-.806l.873-3.494c.067-.336.47-.604.806-.47.336.067.605.47.47.806l-.873 3.494c0 .269-.336.47-.605.47z" fill="#000"/>
    <path d="M40.044 24.456H37.02a.673.673 0 01-.672-.672c0-.335.336-.671.672-.671h3.024c.537 0 1.075-.27 1.344-.672.134-.202.403-.672.201-1.21-.403-1.142-2.351-1.276-3.897-1.142-.403 0-.806.269-.94.538-.068.134-.068.201-.068.201s.27.403 2.15.47c.404 0 .672.336.672.672a.673.673 0 01-.672.672c-1.814-.067-2.821-.403-3.225-1.142-.134-.269-.336-.806.068-1.478.403-.74 1.142-1.21 2.015-1.277 2.956-.201 4.703.47 5.308 2.016.336.806.202 1.747-.336 2.486-.739.739-1.612 1.21-2.62 1.21z" fill="#000"/>
    <path d="M3.36 29.563c-.27 0-.538-.135-.605-.404L.403 23.045c-.134-.336 0-.672.336-.873.336-.134.672-.067.873.201.27.47.807.74 1.344.74h37.088c.537 0 1.075-.27 1.343-.74.202-.268.538-.403.874-.201.336.134.47.537.336.873l-2.352 6.114c-.134.336-.537.538-.873.404-.336-.135-.538-.538-.403-.874l1.612-4.233c-.201.067-.403.067-.605.067H2.956c-.201 0-.403 0-.605-.067l1.613 4.233c.134.336-.067.74-.403.873h-.202zM32.788 42.395H10.213c-1.411 0-2.688-.873-3.225-2.217l-.067-.269c-.135-.335.067-.739.403-.873s.739.067.873.403l.067.269c.269.806 1.075 1.344 1.949 1.344h22.575c.873 0 1.612-.538 1.948-1.344l.067-.202c.135-.336.538-.537.874-.403.336.135.537.538.403.874l-.067.268c-.47 1.277-1.814 2.15-3.225 2.15zM7.525 38.364c-3.158 0-5.24-2.217-5.643-5.98-.068-.537.134-1.075.47-1.478a1.913 1.913 0 011.948-.604c.336.067.74.067 1.142 0 .404-.067.807-.135 1.21-.27.672-.134 1.344-.268 2.015-.268 1.344 0 2.218.74 2.554 2.217.47 2.15.201 4.032-.672 5.174-.672.739-1.68 1.21-3.024 1.21zm-3.56-6.786c-.202 0-.404.067-.538.269-.067 0-.202.201-.135.403.202 1.814.941 4.77 4.3 4.77.874 0 1.546-.268 1.949-.806.672-.806.806-2.351.47-4.031-.201-1.075-.672-1.142-1.21-1.142-.47 0-1.074.134-1.679.268-.403.068-.873.202-1.276.27a7.016 7.016 0 01-1.68 0h-.202zM35.475 38.364c-1.276 0-2.351-.47-3.023-1.344-.94-1.142-1.21-3.023-.672-5.173.336-1.478 1.142-2.217 2.553-2.217.605 0 1.276.134 2.016.268.403.068.806.202 1.209.27.47.067.873.067 1.142 0 .806-.135 1.478.066 2.016.604.403.403.537.94.47 1.478-.47 3.897-2.553 6.114-5.71 6.114zm-1.21-7.323c-.537 0-1.007.067-1.209 1.142-.403 1.68-.201 3.225.47 4.031.404.538 1.076.806 1.95.806 3.358 0 4.098-3.023 4.3-4.77 0-.202-.068-.403-.135-.47-.202-.202-.47-.269-.74-.202-.47.135-1.074.135-1.679 0-.403-.067-.873-.134-1.277-.269-.671-.134-1.209-.268-1.68-.268zM21.5 21.567c-3.83 0-6.987-3.157-6.987-6.987 0-.47.067-.94.134-1.411.067-.336.336-.538.672-.538H27.68c.336 0 .605.202.672.538.067.47.135 1.008.135 1.41 0 3.898-3.158 6.988-6.988 6.988zm-5.576-7.592c0 .202-.068.403-.068.605 0 3.09 2.554 5.644 5.644 5.644 3.09 0 5.644-2.554 5.644-5.644 0-.202 0-.403-.067-.605H15.924z" fill="#000"/>
    <path d="M29.697 13.975H13.37a1.32 1.32 0 01-1.142-.605 1.128 1.128 0 01-.134-1.209c.201-.47.403-.873.806-1.21.605-.604 1.41-.94 2.352-.94H27.95c1.41 0 2.62.873 3.09 2.217a1.51 1.51 0 01-.134 1.21c-.403.335-.806.537-1.21.537zm-14.58-2.62c-.537 0-1.008.201-1.344.537-.201.202-.335.47-.47.74l16.327-.068a1.966 1.966 0 00-1.814-1.277H15.117v.068z" fill="#000"/>
    <path d="M28.555 11.355h-14.11c-.403 0-.672-.269-.672-.672v-.336A7.67 7.67 0 0116.73 4.3c.268-.202.739-.202.94.134.202.27.135.672-.134.941a6.152 6.152 0 00-2.419 4.703h12.766c-.067-1.612-.74-3.09-1.881-4.165-.135-.135-.336-.336-.538-.47-.269-.202-.336-.673-.134-.941.201-.27.672-.336.94-.135.27.202.47.403.672.605 1.478 1.478 2.285 3.426 2.285 5.442v.336c0 .336-.27.605-.672.605z" fill="#000"/>
    <path d="M23.18 7.19c-.403 0-.672-.27-.672-.673v-3.56c0-.538-.47-1.009-1.008-1.009s-1.008.47-1.008 1.008v3.561c0 .403-.269.672-.672.672s-.672-.269-.672-.672v-3.56c0-1.277 1.075-2.352 2.352-2.352s2.352 1.075 2.352 2.351v3.561a.673.673 0 01-.672.672z" fill="#000"/>
</symbol><symbol fill="none" viewBox="0 0 30 30" id="question" xmlns="http://www.w3.org/2000/svg">
    <g clip-path="url(#axclip0_1938_8603)">
        <path d="M15 0C6.71 0 0 6.709 0 15c0 8.29 6.709 15 15 15 8.29 0 15-6.709 15-15 0-8.29-6.709-15-15-15zm-.444 22.02c-.849 0-1.5-.71-1.5-1.52 0-.829.67-1.52 1.5-1.52s1.52.691 1.52 1.52c0 .81-.67 1.52-1.52 1.52zm2.251-7.68c-1.086.849-1.106 1.441-1.106 2.468 0 .375-.197.81-1.165.81-.81 0-1.086-.297-1.086-1.323 0-1.698.75-2.508 1.323-3.001.652-.553 1.758-1.165 1.758-2.232 0-.908-.79-1.342-1.777-1.342-2.014 0-1.58 1.52-2.646 1.52-.533 0-1.185-.355-1.185-1.125 0-1.066 1.224-2.646 3.89-2.646 2.527 0 4.205 1.402 4.205 3.258s-1.678 3.198-2.211 3.613z" fill="#BDBDBD"/>
    </g>
    <defs>
        <clipPath id="axclip0_1938_8603">
            <path fill="#fff" d="M0 0h30v30H0z"/>
        </clipPath>
    </defs>
</symbol><symbol viewBox="0 0 8 13" id="sorter-arrow" xmlns="http://www.w3.org/2000/svg">
    <path d="M4.354.646a.5.5 0 00-.708 0L.464 3.828a.5.5 0 10.708.708L4 1.707l2.828 2.829a.5.5 0 10.708-.708L4.354.646zM4.5 13V1h-1v12h1z"/>
</symbol><symbol viewBox="0 0 24 24" id="sorter-icon" xmlns="http://www.w3.org/2000/svg">
    <path d="M11.78 5.845L9.155 3.22a.75.75 0 00-1.06 0L5.47 5.845a.75.75 0 101.06 1.06l1.345-1.344V20.25a.75.75 0 001.5 0V5.56l1.345 1.345a.746.746 0 001.06 0 .75.75 0 000-1.06zM18.53 17.095a.75.75 0 00-1.06 0l-1.345 1.345V3.75a.75.75 0 00-1.5 0v14.69l-1.345-1.345a.75.75 0 00-1.06 1.06l2.625 2.625a.747.747 0 001.06 0l2.625-2.625a.75.75 0 000-1.06z"/>
</symbol><symbol viewBox="0 0 24 24" id="star" xmlns="http://www.w3.org/2000/svg">
    <path d="M11.103 3.817a1 1 0 011.794 0l1.96 3.972a1 1 0 00.753.547l4.386.641a1 1 0 01.553 1.706l-3.172 3.09a1 1 0 00-.288.885l.748 4.365a1 1 0 01-1.45 1.054l-3.921-2.062a1 1 0 00-.931 0l-3.921 2.062a1 1 0 01-1.451-1.055l.748-4.364a1 1 0 00-.288-.885l-3.172-3.09a1 1 0 01.553-1.706l4.386-.641a1 1 0 00.752-.547l1.961-3.972z" stroke-width="1.998" stroke-linecap="round" stroke-linejoin="round"/>
</symbol><symbol viewBox="0 0 8 8" id="star-sm" xmlns="http://www.w3.org/2000/svg">
    <path d="M7.478 3.438L5.92 4.954 6.288 7.1a.25.25 0 01-.362.264L4 6.351 2.075 7.363a.25.25 0 01-.363-.264l.368-2.144L.522 3.437a.25.25 0 01.139-.426l2.152-.313.963-1.95c.084-.17.364-.17.448 0l.963 1.95 2.152.313a.25.25 0 01.139.426z"/>
</symbol><symbol fill="none" viewBox="0 0 36 36" id="telegram" xmlns="http://www.w3.org/2000/svg">
    <path d="M18 36c9.941 0 18-8.059 18-18S27.941 0 18 0 0 8.059 0 18s8.059 18 18 18z" fill="#039BE5"/>
    <path d="M8.237 17.61l17.355-6.691c.805-.291 1.509.196 1.248 1.414l.001-.001-2.955 13.921c-.219.987-.805 1.227-1.626.762l-4.5-3.316-2.17 2.09c-.24.24-.443.443-.908.443l.32-4.58 8.34-7.534c.363-.32-.081-.5-.56-.181l-10.306 6.489-4.443-1.386c-.965-.306-.986-.965.204-1.43z" fill="#fff"/>
</symbol><symbol viewBox="0 0 36 36" id="time" xmlns="http://www.w3.org/2000/svg">
    <path d="M25.09 18.105a.736.736 0 010-1.473h.887c-.416-4.086-3.73-7.328-7.846-7.632v.773a.736.736 0 11-1.473 0v-.755a8.541 8.541 0 00-7.652 7.716h.795a.736.736 0 010 1.473H9A8.54 8.54 0 0016.76 26v-.933a.736.736 0 111.472 0V26A8.54 8.54 0 0026 18.105h-.91zm-4.614-2.54l-2.46 2.46a.736.736 0 01-1.04 0l-4.28-4.282a.736.736 0 011.04-1.041l3.76 3.761 1.939-1.94a.736.736 0 111.04 1.042z"/>
</symbol><symbol fill="none" viewBox="0 0 30 30" id="user" xmlns="http://www.w3.org/2000/svg">
    <path d="M14.786 14.451c1.986 0 3.705-.712 5.11-2.117 1.404-1.404 2.116-3.123 2.116-5.109 0-1.985-.712-3.703-2.117-5.109C18.49.712 16.771 0 14.786 0c-1.985 0-3.704.712-5.109 2.117C8.273 3.52 7.56 5.24 7.56 7.225c0 1.986.713 3.705 2.118 5.11 1.404 1.404 3.123 2.116 5.108 2.116zM27.43 23.069a17.851 17.851 0 00-.244-1.896 14.94 14.94 0 00-.466-1.906 9.41 9.41 0 00-.783-1.777 6.71 6.71 0 00-1.182-1.54 5.21 5.21 0 00-1.697-1.066 5.866 5.866 0 00-2.167-.393c-.306 0-.602.126-1.174.498-.352.23-.764.496-1.223.79-.393.25-.926.484-1.583.697a6.286 6.286 0 01-1.936.313 6.291 6.291 0 01-1.936-.313c-.657-.213-1.19-.447-1.582-.698-.456-.29-.868-.556-1.225-.789-.571-.372-.868-.498-1.174-.498a5.86 5.86 0 00-2.166.393c-.66.26-1.23.62-1.698 1.066a6.707 6.707 0 00-1.18 1.54 9.43 9.43 0 00-.784 1.777 14.967 14.967 0 00-.466 1.906 17.79 17.79 0 00-.243 1.896c-.04.574-.06 1.17-.06 1.772 0 1.566.498 2.833 1.48 3.768C4.91 29.532 6.192 30 7.752 30h14.445c1.56 0 2.843-.468 3.812-1.39.982-.935 1.48-2.203 1.48-3.77 0-.604-.02-1.2-.06-1.771z" fill="#BDBDBD"/>
</symbol><symbol fill="none" viewBox="0 0 36 36" id="whatsapp" xmlns="http://www.w3.org/2000/svg">
    <path d="M18 36c9.941 0 18-8.059 18-18S27.941 0 18 0 0 8.059 0 18s8.059 18 18 18z" fill="#1BD741"/>
    <path d="M7.2 28.824l1.639-5.82a11.649 11.649 0 01-1.609-5.92c0-6.444 5.242-11.686 11.685-11.686 6.443 0 11.685 5.242 11.685 11.685 0 6.443-5.242 11.685-11.685 11.685a11.67 11.67 0 01-5.712-1.49L7.2 28.825zm6.31-3.671l.357.218a9.683 9.683 0 005.048 1.415c5.35 0 9.703-4.353 9.703-9.703S24.265 7.38 18.915 7.38s-9.703 4.353-9.703 9.703c0 1.864.53 3.675 1.532 5.235l.241.375-.944 3.352 3.468-.892z" fill="#fff"/>
    <path d="M15.633 11.645l-.759-.042a.917.917 0 00-.651.223c-.368.32-.956.936-1.136 1.74-.27 1.2.147 2.668 1.223 4.136 1.077 1.468 3.084 3.818 6.632 4.821 1.143.323 2.043.105 2.737-.338.55-.352.928-.916 1.065-1.554l.121-.566a.393.393 0 00-.22-.439l-2.562-1.181a.393.393 0 00-.476.117l-1.006 1.304a.288.288 0 01-.323.096c-.69-.242-2.997-1.208-4.263-3.647a.29.29 0 01.037-.325l.961-1.112a.392.392 0 00.064-.411l-1.105-2.585a.393.393 0 00-.34-.237z" fill="#fff"/>
</symbol></svg>